/* XPM */
static char * circle_validate_xpm[] = {
"41 41 2 1",
" 	c #FFFFFF",
".	c #00FF00",
"                    .                    ",
"              .............              ",
"            .................            ",
"          .....................          ",
"        .........................        ",
"       ...........................       ",
"      .............................      ",
"     ...............................     ",
"    .................................    ",
"    .................................    ",
"   ...................................   ",
"   ...................................   ",
"  .....................................  ",
"  .....................................  ",
" ....................................... ",
" ....................................... ",
" ....................................... ",
" ....................................... ",
" ....................................... ",
" ....................................... ",
".........................................",
" ....................................... ",
" ....................................... ",
" ....................................... ",
" ....................................... ",
" ....................................... ",
" ....................................... ",
"  .....................................  ",
"  .....................................  ",
"   ...................................   ",
"   ...................................   ",
"    .................................    ",
"    .................................    ",
"     ...............................     ",
"      .............................      ",
"       ...........................       ",
"        .........................        ",
"          .....................          ",
"            .................            ",
"              .............              ",
"                    .                    "};
