/* XPM */
static char * east_xpm[] = {
"32 32 79 1",
" 	c #FFFFFF",
".	c #F8F8F8",
"+	c #E9E9E9",
"@	c #DBDBDB",
"#	c #CECECE",
"$	c #C7C7C7",
"%	c #D4D4D4",
"&	c #F0F0F0",
"*	c #CACACA",
"=	c #797979",
"-	c #434343",
";	c #393939",
">	c #2F2F2F",
",	c #2E2E2E",
"'	c #313131",
")	c #515151",
"!	c #9B9B9B",
"~	c #E3E3E3",
"{	c #757575",
"]	c #000000",
"^	c #CFCFCF",
"/	c #D9D9D9",
"(	c #4C4C4C",
"_	c #E2E2E2",
":	c #535353",
"<	c #1B1B1B",
"[	c #636363",
"}	c #020202",
"|	c #818181",
"1	c #666666",
"2	c #040404",
"3	c #A6A6A6",
"4	c #030303",
"5	c #828282",
"6	c #616161",
"7	c #202020",
"8	c #E1E1E1",
"9	c #4B4B4B",
"0	c #3B3B3B",
"a	c #2C2C2C",
"b	c #080808",
"c	c #292929",
"d	c #C0C0C0",
"e	c #181818",
"f	c #333333",
"g	c #A3A3A3",
"h	c #A8A8A8",
"i	c #595959",
"j	c #E6E6E6",
"k	c #919191",
"l	c #7B7B7B",
"m	c #F9F9F9",
"n	c #808080",
"o	c #EEEEEE",
"p	c #686868",
"q	c #A1A1A1",
"r	c #303030",
"s	c #B6B6B6",
"t	c #090909",
"u	c #B4B4B4",
"v	c #0C0C0C",
"w	c #232323",
"x	c #C3C3C3",
"y	c #B3B3B3",
"z	c #ADADAD",
"A	c #959595",
"B	c #A5A5A5",
"C	c #2B2B2B",
"D	c #191919",
"E	c #BCBCBC",
"F	c #464646",
"G	c #212121",
"H	c #1C1C1C",
"I	c #2A2A2A",
"J	c #3D3D3D",
"K	c #505050",
"L	c #6F6F6F",
"M	c #8D8D8D",
"N	c #BABABA",
"                                ",
"      .+@#$$$$$$$$$$$$$$$%&     ",
"     .*=-;>,,,,,,,,,,,,,')!&    ",
"     ~{]]]]]]]]]]]]]]]]]]]]^    ",
"     /(]]]]]]]]]]]]]]]]]]]]^    ",
"     _:]]]<,,,,,,,,,,,,,')!&    ",
"     +[]]}|$$$$$$$$$$$$$$%&     ",
"     +1]]23                     ",
"     +1]]23                     ",
"     +1]]45$$$$$$$$$$$%&        ",
"     +6]]]7,,,,,,,,,,')!&       ",
"     89]]]]]]]]]]]]]]]]]^       ",
"     ^0]]]]]]]]]]]]]]]]]^       ",
"     $a]]bc,,,,,,,,,,')!&       ",
"     de]]fg$$$$$$$$$$$%&        ",
"     h]]]ij                     ",
"     k]]]lm                     ",
"    mn]]]k                      ",
"    op]]]q                      ",
"    %r]]2g                      ",
"    s<]]th                      ",
"    uv]]wx                      ",
"    h]]]0y$$$$dzqAkkkkkkB8      ",
"    A]]]bc,,,CDv]]]]]]]]]]8     ",
"    B]]]]]]]]]]]]]]]]]]]]]E     ",
"    8]]]]]]]]]]]]]]]]]]]]]8     ",
"     $FGHI,,,rJKLnMkkkkkB8      ",
"      ~NE$$$$$^8om              ",
"                                ",
"                                ",
"                                ",
"                                "};
