/* XPM */
static char * key_gold_xpm[] = {
"16 16 6 1",
" 	c None",
".	c #905000",
"+	c #D8A800",
"@	c #F8F8D8",
"#	c #F8E800",
"$	c #202020",
"    .++++++.    ",
"   +@@@@@@@@+   ",
"  .@###$$###@.  ",
"  .###$  $###.  ",
"  $+##.  .##+$  ",
"   $+##..##+$   ",
"  .#$+####+$#.  ",
"  .+.$++++$.+.  ",
"  $$$ $++$ $$$  ",
"      .##.      ",
"      .##.      ",
"    ...#+.      ",
"    .+++#.      ",
"    $$$#+.      ",
"    .++++$      ",
"    $$$$$       "};
