/* XPM */
static char * lock_xpm[] = {
"16 16 6 1",
" 	c None",
".	c #D8A800",
"+	c #905000",
"@	c #F8E800",
"#	c #F8F8D8",
"$	c #202020",
" .............. ",
"+@############@+",
"+.+@@@@@@@@@@+.+",
"+.@@@@$$$$@@@@.+",
"+.@+@$$$$$$@+@.+",
"+.@+@$$$$$$@+@.+",
"+.@@@$$$$$$@@@.+",
"+.@+@$$$$$$@+@.+",
"+.@+@@$$$$@@+@.+",
"+.@@@@@$$@@@@@.+",
"+.@+@@$$$$@@+@.+",
"+.@+@$$$$$$@+@.+",
"+.@@@$$$$$$@@@.+",
"+.+@@@@@@@@@@+.+",
"++............++",
" ++++++++++++++ "};
