/* XPM */
static char * north_xpm[] = {
"32 32 85 1",
" 	c #FFFFFF",
".	c #F0F0F0",
"+	c #C3C3C3",
"@	c #B6B6B6",
"#	c #E3E3E3",
"$	c #F9F9F9",
"%	c #DADADA",
"&	c #E7E7E7",
"*	c #929292",
"=	c #000000",
"-	c #535353",
";	c #DEDEDE",
">	c #CCCCCC",
",	c #5D5D5D",
"'	c #D4D4D4",
")	c #393939",
"!	c #808080",
"~	c #F4F4F4",
"{	c #959595",
"]	c #AFAFAF",
"^	c #C7C7C7",
"/	c #1A1A1A",
"(	c #373737",
"_	c #E1E1E1",
":	c #878787",
"<	c #848484",
"[	c #202020",
"}	c #9A9A9A",
"|	c #9E9E9E",
"1	c #6F6F6F",
"2	c #EEEEEE",
"3	c #2A2A2A",
"4	c #C2C2C2",
"5	c #ADADAD",
"6	c #0C0C0C",
"7	c #505050",
"8	c #2E2E2E",
"9	c #3B3B3B",
"0	c #C0C0C0",
"a	c #191919",
"b	c #3D3D3D",
"c	c #CFCFCF",
"d	c #6E6E6E",
"e	c #EBEBEB",
"f	c #2B2B2B",
"g	c #303030",
"h	c #181818",
"i	c #9D9D9D",
"j	c #292929",
"k	c #555555",
"l	c #CACACA",
"m	c #AAAAAA",
"n	c #383838",
"o	c #5E5E5E",
"p	c #4E4E4E",
"q	c #B3B3B3",
"r	c #7B7B7B",
"s	c #E9E9E9",
"t	c #626262",
"u	c #050505",
"v	c #A6A6A6",
"w	c #7F7F7F",
"x	c #666666",
"y	c #040404",
"z	c #696969",
"A	c #737373",
"B	c #606060",
"C	c #484848",
"D	c #5A5A5A",
"E	c #222222",
"F	c #BABABA",
"G	c #2F2F2F",
"H	c #747474",
"I	c #A3A3A3",
"J	c #CECECE",
"K	c #404040",
"L	c #727272",
"M	c #1F1F1F",
"N	c #A5A5A5",
"O	c #DBDBDB",
"P	c #8F8F8F",
"Q	c #858585",
"R	c #9B9B9B",
"S	c #F8F8F8",
"T	c #989898",
"                                ",
"                                ",
"    .+@#          $%+&          ",
"   .*==-;        $>==,&         ",
"   ')===!$       ~{===]         ",
"   ^/===(_       $:===<$        ",
"   ^[====}$       |===12        ",
"   ^3=====4       56==7_        ",
"   ^8=====9%      0a==bc        ",
"   ^8======de     ^f==g^        ",
"   ^8==h====i$    ^g==f^        ",
"   ^8==jk====l    cb==a0        ",
"   ^8==8mn===o#   _p==65        ",
"   ^8==8^q====re  st==uv        ",
"   ^8==8^.w====i$ sx==yv        ",
"   ^8==8^ #z====4 sx==yv        ",
"   ^8==8^  %9===9%sx==yv        ",
"   ^8==8^   4====zcx==yv        ",
"   ^8==8^   $i====AB==yv        ",
"   ^8==8^    er====C==yv        ",
"   ^8==8^     #D===E==yv        ",
"   ^8==8^      F======yv        ",
"   ^8==8^      .t=====yv        ",
"   ^8==8^       F=====yv        ",
"   ^G==G^       .H====uI        ",
"   JK==KJ        #LM===N        ",
"   OD==DO         #L===+        ",
"   sP==Ps          #QdR.        ",
"   ScTTcS           ._.         ",
"    SssS                        ",
"                                ",
"                                "};
