/* XPM */
static char * south_xpm[] = {
"32 32 87 1",
" 	c #FFFFFF",
".	c #F9F9F9",
"+	c #EEEEEE",
"@	c #E9E9E9",
"#	c #F0F0F0",
"$	c #C7C7C7",
"%	c #959595",
"&	c #777777",
"*	c #686868",
"=	c #666666",
"-	c #747474",
";	c #848484",
">	c #A4A4A4",
",	c #C0C0C0",
"'	c #D4D4D4",
")	c #DADADA",
"!	c #757575",
"~	c #272727",
"{	c #000000",
"]	c #1A1A1A",
"^	c #434343",
"/	c #6E6E6E",
"(	c #CACACA",
"_	c #CBCBCB",
":	c #3C3C3C",
"<	c #B3B3B3",
"[	c #C6C6C6",
"}	c #040404",
"|	c #525252",
"1	c #898989",
"2	c #A2A2A2",
"3	c #A6A6A6",
"4	c #9E9E9E",
"5	c #7F7F7F",
"6	c #595959",
"7	c #3A3A3A",
"8	c #C3C3C3",
"9	c #6C6C6C",
"0	c #9A9A9A",
"a	c #E1E1E1",
"b	c #E6E6E6",
"c	c #CFCFCF",
"d	c #A8A8A8",
"e	c #484848",
"f	c #4D4D4D",
"g	c #6B6B6B",
"h	c #E7E7E7",
"i	c #787878",
"j	c #737373",
"k	c #AFAFAF",
"l	c #262626",
"m	c #A1A1A1",
"n	c #DDDDDD",
"o	c #3B3B3B",
"p	c #414141",
"q	c #626262",
"r	c #8C8C8C",
"s	c #ADADAD",
"t	c #B8B8B8",
"u	c #0C0C0C",
"v	c #656565",
"w	c #BABABA",
"x	c #717171",
"y	c #919191",
"z	c #989898",
"A	c #808080",
"B	c #6F6F6F",
"C	c #505050",
"D	c #191919",
"E	c #7D7D7D",
"F	c #979797",
"G	c #1F1F1F",
"H	c #4C4C4C",
"I	c #2E2E2E",
"J	c #313131",
"K	c #DCDCDC",
"L	c #6A6A6A",
"M	c #555555",
"N	c #282828",
"O	c #242424",
"P	c #696969",
"Q	c #464646",
"R	c #303030",
"S	c #0D0D0D",
"T	c #222222",
"U	c #404040",
"V	c #E2E2E2",
"                                ",
"           .+@@@@@+.            ",
"         #$%&*===*-;>,'#        ",
"        )!~{{{{{{{{{{]^/(.      ",
"       _:{{{{{{{{{{{{{{{{<.     ",
"      [{{{{{{}}}}}{{{{{{{{)     ",
"     '{{{{{|1233334567{{{{8     ",
"    #9{{{{0a.      .bcdefgh     ",
"    _~{{{2.            h_h      ",
"    d{{{|b                      ",
"    %{{{i.                      ",
"    %{{{j.                      ",
"    k{{{lm'#                    ",
"    no{{{{pqrms,cb.             ",
"    .t{{{{{{{{u]:65>_#          ",
"     .,{{{{{{{{{{{{{~vw#        ",
"       'xp{{{{{{{{{{{{{y#       ",
"        #'wzABC7D{{{{{{{8       ",
"            .+ac,>5|{{{{E#      ",
"                  .bFG{{H'      ",
"                    $I{{J$      ",
"                    $I{{I$      ",
"       #Ka+.        $I{{I$      ",
"      #mLMB;4s$b.   8N{{J$      ",
"      c{{{{{{uOM5432P{{{Q'      ",
"      c{{{{{{{{{{{}}{{{{x#      ",
"      #%RS{{{{{{{{{{{{{{'       ",
"       #_s4;BHT{{{{{{{U_        ",
"           .+a$>;-**&4V         ",
"                .+@@+.          ",
"                                ",
"                                "};
