/* XPM */
static char * west_xpm[] = {
"32 32 105 2",
"  	c #FFFFFF",
". 	c #F3F3F3",
"+ 	c #E4E4E4",
"@ 	c #EDEDED",
"# 	c #FCFCFC",
"$ 	c #E7E7E7",
"% 	c #C3C3C3",
"& 	c #DADADA",
"* 	c #F9F9F9",
"= 	c #B7B7B7",
"- 	c #8F8F8F",
"; 	c #A0A0A0",
"> 	c #5D5D5D",
", 	c #000000",
"' 	c #CCCCCC",
") 	c #5C5C5C",
"! 	c #B1B1B1",
"~ 	c #F7F7F7",
"{ 	c #B3B3B3",
"] 	c #959595",
"^ 	c #F4F4F4",
"/ 	c #CDCDCD",
"( 	c #383838",
"_ 	c #717171",
": 	c #E9E9E9",
"< 	c #5A5A5A",
"[ 	c #BCBCBC",
"} 	c #919191",
"| 	c #838383",
"1 	c #CACACA",
"2 	c #3A3A3A",
"3 	c #444444",
"4 	c #D1D1D1",
"5 	c #ADADAD",
"6 	c #0D0D0D",
"7 	c #4A4A4A",
"8 	c #E1E1E1",
"9 	c #7B7B7B",
"0 	c #CFCFCF",
"a 	c #404040",
"b 	c #181818",
"c 	c #BBBBBB",
"d 	c #8A8A8A",
"e 	c #AEAEAE",
"f 	c #E6E6E6",
"g 	c #555555",
"h 	c #A8A8A8",
"i 	c #5B5B5B",
"j 	c #777777",
"k 	c #636363",
"l 	c #F0F0F0",
"m 	c #C2C2C2",
"n 	c #212121",
"o 	c #232323",
"p 	c #C7C7C7",
"q 	c #575757",
"r 	c #262626",
"s 	c #9E9E9E",
"t 	c #848484",
"u 	c #656565",
"v 	c #101010",
"w 	c #B6B6B6",
"x 	c #A4A4A4",
"y 	c #414141",
"z 	c #D4D4D4",
"A 	c #3C3C3C",
"B 	c #161616",
"C 	c #484848",
"D 	c #7F7F7F",
"E 	c #939393",
"F 	c #595959",
"G 	c #818181",
"H 	c #3F3F3F",
"I 	c #C0C0C0",
"J 	c #313131",
"K 	c #878787",
"L 	c #525252",
"M 	c #2C2C2C",
"N 	c #2F2F2F",
"O 	c #1A1A1A",
"P 	c #252525",
"Q 	c #121212",
"R 	c #080808",
"S 	c #A5A5A5",
"T 	c #272727",
"U 	c #464646",
"V 	c #434343",
"W 	c #292929",
"X 	c #6E6E6E",
"Y 	c #6C6C6C",
"Z 	c #B4B4B4",
"` 	c #494949",
" .	c #CBCBCB",
"..	c #191919",
"+.	c #616161",
"@.	c #5F5F5F",
"#.	c #7C7C7C",
"$.	c #9F9F9F",
"%.	c #A9A9A9",
"&.	c #9C9C9C",
"*.	c #EBEBEB",
"=.	c #E3E3E3",
"-.	c #858585",
";.	c #9B9B9B",
">.	c #C6C6C6",
"                                                                ",
"                                                                ",
"      . + @ #                                         $ % & *   ",
"    . = - ; + #                                     $ > , , ' * ",
"    & ) , , ! ~           $ % & *                   { , , , ] ^ ",
"    / ( , , _ :         $ < , , [ *                 } , , , | * ",
"    1 2 , , 3 4         5 6 , , 7 8               * 9 , , , }   ",
"    0 a , , b c         d , , , , e               f g , , , h   ",
"    f i , , , - *     * j , , , , k l             m n , , o p   ",
"    * - , , , q f     f g , , , , r p           * - , , , q f   ",
"      m n , , o p     m n , , , , , - *         f q , , , - *   ",
"      f g , , , s   * - , , , , , , g f         p o , , n m     ",
"      * t , , , u l f i , , , v , , , w         x , , , g f     ",
"        w , , , y z 0 A , , B C , , , u l     * D , , , D *     ",
"        z y , , , w c b , , A E , , , r p     f F , , , x       ",
"        l u , , , G t , , , i 0 g , , , - *   0 H , , b I       ",
"          s , , , 7 J , , , K ^ - , , , L 8   p M , , N p       ",
"          I O , , P Q , , R S   p T , , , S * w , , , U z       ",
"          z V , , , , , , W p   l X , , , F 8 t , , , u l       ",
"          l u , , , , , , Y l     I o , , , x L , , , s         ",
"            s , , , , , B Z       l u , , , ` , , , T  .        ",
"            I .., , , , A 0         w , , , 6 , , , +.l         ",
"            0 A , , , , F f         f F , , , , , , s           ",
"            f @., , , , #.*         * $., , , , , T  .          ",
"            * %., , , , &.            0 H , , , , Y l           ",
"              *._ , , , %             l _ , , , , z             ",
"                =.-.X ;.l               z , , , >.              ",
"                  l 8 l                   8 [ 8                 ",
"                                                                ",
"                                                                ",
"                                                                ",
"                                                                "};
